<svg width="26" height="27" viewBox="0 0 26 27" fill="none" xmlns="http://www.w3.org/2000/svg">
<path d="M19.0646 16.839H17.8598L17.4328 16.4265C19.2629 14.2874 20.2085 11.3692 19.6899 8.26759C18.9731 4.02009 15.4349 0.6282 11.1646 0.108722C4.71349 -0.685774 -0.71584 4.75347 0.0772088 11.2164C0.595741 15.4944 3.98145 19.0391 8.22121 19.7572C11.3172 20.2767 14.2301 19.3294 16.3652 17.496L16.777 17.9238V19.1308L23.2586 25.6243C23.8839 26.2507 24.9057 26.2507 25.531 25.6243C26.1563 24.9978 26.1563 23.9742 25.531 23.3477L19.0646 16.839ZM9.91407 16.839C6.11658 16.839 3.05114 13.7679 3.05114 9.96353C3.05114 6.15912 6.11658 3.08808 9.91407 3.08808C13.7116 3.08808 16.777 6.15912 16.777 9.96353C16.777 13.7679 13.7116 16.839 9.91407 16.839Z" fill="#231C4F"/>
</svg>
